<svg width="12" height="8" viewBox="0 0 12 8" fill="none" xmlns="http://www.w3.org/2000/svg">
<path d="M11.3083 1.1709C11.1625 1.02507 10.9898 0.952149 10.7903 0.952149C10.5908 0.952149 10.4183 1.02507 10.2729 1.1709L5.99998 5.44382L1.71248 1.15632C1.57637 1.0202 1.40623 0.952148 1.20206 0.952148C0.997896 0.952148 0.822896 1.02507 0.677063 1.1709C0.53123 1.31673 0.458313 1.4894 0.458313 1.6889C0.458313 1.8884 0.53123 2.06087 0.677063 2.20632L5.59165 7.10632C5.64998 7.16465 5.71317 7.20607 5.78123 7.23057C5.84928 7.25507 5.9222 7.26712 5.99998 7.26673C6.07776 7.26673 6.15067 7.25448 6.21873 7.22998C6.28678 7.20548 6.34998 7.16426 6.40831 7.10632L11.3229 2.19173C11.459 2.05562 11.5271 1.88782 11.5271 1.68832C11.5271 1.48882 11.4541 1.31634 11.3083 1.1709Z" fill="#203D50"/>
</svg>
