<svg width="8" height="12" viewBox="0 0 8 12" fill="none" xmlns="http://www.w3.org/2000/svg">
<path d="M1.17084 11.3083C1.025 11.1624 0.952087 10.9898 0.952087 10.7903C0.952087 10.5908 1.025 10.4183 1.17084 10.2728L5.44375 5.99992L1.15625 1.71242C1.02014 1.57631 0.952087 1.40617 0.952087 1.202C0.952087 0.997835 1.025 0.822835 1.17084 0.677002C1.31667 0.531169 1.48934 0.458252 1.68884 0.458252C1.88834 0.458252 2.06081 0.531169 2.20625 0.677002L7.10626 5.59159C7.16459 5.64992 7.206 5.71311 7.2305 5.78117C7.255 5.84922 7.26706 5.92214 7.26667 5.99992C7.26667 6.0777 7.25442 6.15061 7.22992 6.21867C7.20542 6.28672 7.1642 6.34992 7.10626 6.40825L2.19167 11.3228C2.05556 11.4589 1.88775 11.527 1.68825 11.527C1.48875 11.527 1.31628 11.4541 1.17084 11.3083Z" fill="white"/>
</svg>
