<svg width="8" height="12" viewBox="0 0 8 12" fill="none" xmlns="http://www.w3.org/2000/svg">
<path d="M1.1709 10.977C1.02507 10.8311 0.952148 10.6585 0.952148 10.459C0.952148 10.2595 1.02507 10.087 1.1709 9.94154L5.44382 5.66862L1.15632 1.38112C1.0202 1.24501 0.952148 1.07487 0.952148 0.870703C0.952148 0.666537 1.02507 0.491536 1.1709 0.345703C1.31673 0.19987 1.4894 0.126953 1.6889 0.126953C1.8884 0.126953 2.06087 0.19987 2.20632 0.345703L7.10632 5.26029C7.16465 5.31862 7.20607 5.38181 7.23057 5.44987C7.25507 5.51793 7.26712 5.59084 7.26673 5.66862C7.26673 5.7464 7.25448 5.81931 7.22998 5.88737C7.20548 5.95543 7.16426 6.01862 7.10632 6.07695L2.19173 10.9915C2.05562 11.1276 1.88781 11.1957 1.68831 11.1957C1.48881 11.1957 1.31634 11.1228 1.1709 10.977Z" fill="#203D50"/>
</svg>
