<svg width="7" height="12" viewBox="0 0 7 12" fill="none" xmlns="http://www.w3.org/2000/svg">
<path d="M0.677063 10.9472C0.53123 10.8013 0.458313 10.6287 0.458313 10.4292C0.458313 10.2297 0.53123 10.0572 0.677063 9.91175L4.94998 5.63883L0.66248 1.35133C0.526368 1.21522 0.458313 1.04508 0.458313 0.840918C0.458313 0.636751 0.53123 0.461751 0.677063 0.315918C0.822896 0.170085 0.995563 0.097168 1.19506 0.097168C1.39456 0.097168 1.56704 0.170085 1.71248 0.315918L6.61248 5.2305C6.67081 5.28883 6.71223 5.35203 6.73673 5.42008C6.76123 5.48814 6.77329 5.56106 6.7729 5.63883C6.7729 5.71661 6.76065 5.78953 6.73615 5.85758C6.71165 5.92564 6.67043 5.98883 6.61248 6.04717L1.6979 10.9618C1.56178 11.0979 1.39398 11.1659 1.19448 11.1659C0.994979 11.1659 0.822507 11.093 0.677063 10.9472Z" fill="white"/>
</svg>
