<svg width="15" height="26" viewBox="0 0 15 26" fill="none" xmlns="http://www.w3.org/2000/svg">
<path d="M0.634766 24.9438C0.306641 24.6156 0.142578 24.2271 0.142578 23.7782C0.142578 23.3294 0.306641 22.9413 0.634766 22.6141L10.2488 13L0.601953 3.35313C0.295703 3.04688 0.142578 2.66406 0.142578 2.20469C0.142578 1.74531 0.306641 1.35156 0.634766 1.02344C0.962891 0.695312 1.35139 0.53125 1.80027 0.53125C2.24914 0.53125 2.6372 0.695312 2.96445 1.02344L13.9895 12.0813C14.1207 12.2125 14.2139 12.3547 14.269 12.5078C14.3241 12.6609 14.3513 12.825 14.3504 13C14.3504 13.175 14.3228 13.3391 14.2677 13.4922C14.2126 13.6453 14.1198 13.7875 13.9895 13.9187L2.93164 24.9766C2.62539 25.2828 2.24783 25.4359 1.79895 25.4359C1.35008 25.4359 0.962016 25.2719 0.634766 24.9438Z" fill="white"/>
</svg>
