<svg width="15" height="26" viewBox="0 0 15 26" fill="none" xmlns="http://www.w3.org/2000/svg">
<path d="M13.8582 1.02353C14.1863 1.35166 14.3504 1.74016 14.3504 2.18904C14.3504 2.63791 14.1863 3.02597 13.8582 3.35322L4.24415 12.9673L13.891 22.6142C14.1973 22.9204 14.3504 23.3032 14.3504 23.7626C14.3504 24.222 14.1863 24.6157 13.8582 24.9438C13.5301 25.272 13.1416 25.436 12.6927 25.436C12.2438 25.436 11.8558 25.272 11.5285 24.9438L0.503525 13.886C0.372275 13.7548 0.279088 13.6126 0.223963 13.4595C0.168838 13.3063 0.141713 13.1423 0.142588 12.9673C0.142588 12.7923 0.17015 12.6282 0.225275 12.4751C0.2804 12.322 0.37315 12.1798 0.503525 12.0485L11.5613 0.990723C11.8676 0.684473 12.2452 0.531347 12.694 0.531347C13.1429 0.531347 13.531 0.69541 13.8582 1.02353Z" fill="white"/>
</svg>
