<svg width="8" height="12" viewBox="0 0 8 12" fill="none" xmlns="http://www.w3.org/2000/svg">
<path d="M6.82916 11.3083C6.975 11.1624 7.04791 10.9898 7.04791 10.7903C7.04791 10.5908 6.975 10.4183 6.82916 10.2728L2.55625 5.99992L6.84375 1.71242C6.97986 1.57631 7.04791 1.40617 7.04791 1.202C7.04791 0.997835 6.975 0.822835 6.82916 0.677002C6.68333 0.531169 6.51066 0.458252 6.31116 0.458252C6.11166 0.458252 5.93919 0.531169 5.79375 0.677002L0.893745 5.59159C0.835412 5.64992 0.793995 5.71311 0.769495 5.78117C0.744995 5.84922 0.73294 5.92214 0.733328 5.99992C0.733328 6.0777 0.745578 6.15061 0.770078 6.21867C0.794578 6.28672 0.8358 6.34992 0.893745 6.40825L5.80833 11.3228C5.94444 11.4589 6.11225 11.527 6.31175 11.527C6.51125 11.527 6.68372 11.4541 6.82916 11.3083Z" fill="#777777"/>
</svg>
