<svg width="20" height="20" viewBox="0 0 20 20" fill="none" xmlns="http://www.w3.org/2000/svg">
<path d="M9.99975 19.9998C4.47676 19.9998 -0.000244141 15.5228 -0.000244141 9.99975C-0.000244141 4.47676 4.47676 -0.000244141 9.99975 -0.000244141C15.5228 -0.000244141 19.9998 4.47676 19.9998 9.99975C19.9998 15.5228 15.5228 19.9998 9.99975 19.9998ZM9.99975 17.9998C12.1215 17.9998 14.1563 17.1569 15.6566 15.6566C17.1569 14.1563 17.9998 12.1215 17.9998 9.99975C17.9998 7.87802 17.1569 5.84319 15.6566 4.3429C14.1563 2.84261 12.1215 1.99976 9.99975 1.99976C7.87802 1.99976 5.84319 2.84261 4.3429 4.3429C2.84261 5.84319 1.99976 7.87802 1.99976 9.99975C1.99976 12.1215 2.84261 14.1563 4.3429 15.6566C5.84319 17.1569 7.87802 17.9998 9.99975 17.9998ZM9.00276 13.9998L4.75976 9.75675L6.17375 8.34276L9.00276 11.1718L14.6598 5.51476L16.0738 6.92875L9.00276 13.9998Z" fill="white"/>
</svg>
