<svg width="19" height="27" viewBox="0 0 19 27" fill="none" xmlns="http://www.w3.org/2000/svg">
<path d="M12.4932 4.97967C12.6657 4.67099 12.9538 4.44348 13.2941 4.3472C13.6343 4.25091 13.9989 4.29374 14.3076 4.46626C14.6163 4.63878 14.8438 4.92686 14.9401 5.26712C15.0364 5.60738 14.9935 5.97196 14.821 6.28064L11.9133 11.4832L13.2371 12.4216L17.5622 18.184C18.0229 18.808 18.0506 19.6331 17.6733 20.3081L14.8372 25.3827C14.2689 26.3176 13.0895 26.6513 12.1156 26.1528L4.55032 21.9247C4.10804 21.6775 3.78661 21.2687 3.66614 20.7737L0.695099 12.698L2.05725 12.2831C2.415 12.1623 2.8008 12.2099 3.12669 12.392L3.38275 12.5351L5.98837 16.6186L12.4932 4.97967ZM16.2591 0.974583C17.4938 1.66466 18.4038 2.81697 18.789 4.17802C19.1741 5.53907 19.0028 6.99736 18.3127 8.2321C17.337 9.97793 15.5797 10.9357 13.7342 10.9582L14.5278 9.53824C15.5956 9.2949 16.5699 8.61747 17.1488 7.58161C17.6664 6.65556 17.7948 5.56184 17.506 4.54105C17.2171 3.52027 16.5346 2.65603 15.6086 2.13848C14.6825 1.62092 13.5888 1.49243 12.568 1.78128C11.5472 2.07012 10.683 2.75265 10.1654 3.6787C9.58651 4.71456 9.52004 5.89937 9.87224 6.9363L9.07865 8.35625C8.13081 6.77258 8.02582 4.77405 9.00154 3.02821C9.69162 1.79348 10.8439 0.883447 12.205 0.498317C13.566 0.113187 15.0243 0.284505 16.2591 0.974583Z" fill="#244B29"/>
</svg>
