<svg width="18" height="19" viewBox="0 0 18 19" fill="none" xmlns="http://www.w3.org/2000/svg">
<g id="icon_checkbox_unchecked">
<path id="Vector" d="M9 16.6421C4.85775 16.6421 1.5 13.2843 1.5 9.14209C1.5 4.99984 4.85775 1.64209 9 1.64209C13.1423 1.64209 16.5 4.99984 16.5 9.14209C16.5 13.2843 13.1423 16.6421 9 16.6421ZM9 15.1421C10.5913 15.1421 12.1174 14.5099 13.2426 13.3847C14.3679 12.2595 15 10.7334 15 9.14209C15 7.55079 14.3679 6.02467 13.2426 4.89945C12.1174 3.77423 10.5913 3.14209 9 3.14209C7.4087 3.14209 5.88258 3.77423 4.75736 4.89945C3.63214 6.02467 3 7.55079 3 9.14209C3 10.7334 3.63214 12.2595 4.75736 13.3847C5.88258 14.5099 7.4087 15.1421 9 15.1421ZM8.25225 12.1421L5.07 8.95984L6.1305 7.89934L8.25225 10.0211L12.495 5.77834L13.5555 6.83884L8.25225 12.1421Z" fill="#B6B6B6"/>
</g>
</svg>
