<svg width="34" height="34" viewBox="0 0 34 34" fill="none" xmlns="http://www.w3.org/2000/svg">
<path d="M22.8293 1.44176L25.2062 6.81416L30.935 8.06581L29.7596 13.8296L33.6737 18.2296L29.2952 22.1895L29.923 28.0306L24.1087 28.6389L21.2117 33.7119L16.1363 30.7128L10.8515 33.1252L8.44864 27.7131L2.7524 26.4683L3.9421 20.7006L0.0540014 16.3403L4.38168 12.3629L3.76557 6.56544L9.56291 6.00841L12.4548 0.858895L17.5041 3.81829L22.8293 1.44176ZM11.3265 10.9847C10.7562 11.1375 10.2707 11.5136 9.9769 12.0303C9.68309 12.5469 9.60502 13.1618 9.75985 13.7397C9.91469 14.3175 10.2897 14.811 10.8025 15.1115C11.3153 15.4121 11.9238 15.495 12.4941 15.3422C13.0645 15.1894 13.55 14.8133 13.8438 14.2966C14.1376 13.78 14.2157 13.1651 14.0608 12.5872C13.906 12.0094 13.5309 11.5159 13.0181 11.2154C12.5054 10.9148 11.8969 10.8318 11.3265 10.9847ZM21.2192 19.2316C20.6489 19.3844 20.1634 19.7605 19.8696 20.2772C19.5758 20.7938 19.4977 21.4087 19.6525 21.9866C19.8074 22.5644 20.1824 23.0579 20.6952 23.3584C21.208 23.659 21.8165 23.742 22.3868 23.5891C22.9572 23.4363 23.4427 23.0602 23.7365 22.5435C24.0303 22.0269 24.1083 21.412 23.9535 20.8341C23.7987 20.2563 23.4236 19.7628 22.9108 19.4623C22.3981 19.1617 21.7896 19.0787 21.2192 19.2316ZM13.6559 25.9286L22.6277 10.1516L20.0575 8.64521L11.0856 24.4222L13.6559 25.9286Z" fill="white"/>
</svg>
