<svg width="140" height="102" viewBox="0 0 140 102" fill="none" xmlns="http://www.w3.org/2000/svg">
<path opacity="0.9" d="M139.432 0L111.318 59.8324L107.627 38.4637C113.874 38.4637 119.364 39.8883 124.097 42.7374C129.02 45.5866 132.901 49.4804 135.74 54.419C138.58 59.1676 140 64.486 140 70.3743C140 76.2626 138.58 81.581 135.74 86.3296C132.901 91.0782 129.02 94.8771 124.097 97.7263C119.175 100.575 113.685 102 107.627 102C101.758 102 96.3624 100.575 91.4402 97.7263C86.5179 94.8771 82.6369 90.9832 79.7972 86.0447C76.9574 81.1061 75.5375 75.5978 75.5375 69.5195C75.5375 63.8212 76.8627 57.838 79.5132 51.5698C82.3529 45.1117 87.0859 36.9441 93.712 27.067L111.602 0H139.432ZM63.8945 0L35.7809 59.8324L32.0892 38.4637C38.3367 38.4637 43.8269 39.8883 48.5598 42.7374C53.4821 45.5866 57.3631 49.4804 60.2028 54.419C63.0426 59.1676 64.4625 64.486 64.4625 70.3743C64.4625 76.2626 63.0426 81.581 60.2028 86.3296C57.3631 91.0782 53.4821 94.8771 48.5598 97.7263C43.6376 100.575 38.1474 102 32.0892 102C26.2204 102 20.8249 100.575 15.9026 97.7263C10.9804 94.8771 7.09939 90.9832 4.25963 86.0447C1.41988 81.1061 0 75.5978 0 69.5195C0 63.8212 1.32522 57.838 3.97566 51.5698C6.81542 45.1117 11.5483 36.9441 18.1744 27.067L36.0649 0H63.8945Z" fill="#4BB0C7"/>
</svg>
