<svg width="48" height="48" viewBox="0 0 48 48" fill="none" xmlns="http://www.w3.org/2000/svg">
<rect width="48" height="48" rx="24" fill="#203D50"/>
<path d="M26.8292 29.3083C26.975 29.1624 27.0479 28.9898 27.0479 28.7903C27.0479 28.5908 26.975 28.4183 26.8292 28.2728L22.5562 23.9999L26.8437 19.7124C26.9799 19.5763 27.0479 19.4062 27.0479 19.202C27.0479 18.9978 26.975 18.8228 26.8292 18.677C26.6833 18.5312 26.5107 18.4583 26.3112 18.4583C26.1117 18.4583 25.9392 18.5312 25.7937 18.677L20.8937 23.5916C20.8354 23.6499 20.794 23.7131 20.7695 23.7812C20.745 23.8492 20.7329 23.9221 20.7333 23.9999C20.7333 24.0777 20.7456 24.1506 20.7701 24.2187C20.7946 24.2867 20.8358 24.3499 20.8937 24.4083L25.8083 29.3228C25.9444 29.4589 26.1122 29.527 26.3117 29.527C26.5112 29.527 26.6837 29.4541 26.8292 29.3083Z" fill="white"/>
</svg>
