<svg width="48" height="48" viewBox="0 0 48 48" fill="none" xmlns="http://www.w3.org/2000/svg">
<rect width="48" height="48" rx="24" transform="matrix(-1 0 0 1 48 0)" fill="#F5F5F5"/>
<path d="M21.1708 29.3083C21.025 29.1624 20.9521 28.9898 20.9521 28.7903C20.9521 28.5908 21.025 28.4183 21.1708 28.2728L25.4438 23.9999L21.1563 19.7124C21.0201 19.5763 20.9521 19.4062 20.9521 19.202C20.9521 18.9978 21.025 18.8228 21.1708 18.677C21.3167 18.5312 21.4893 18.4583 21.6888 18.4583C21.8883 18.4583 22.0608 18.5312 22.2063 18.677L27.1063 23.5916C27.1646 23.6499 27.206 23.7131 27.2305 23.7812C27.255 23.8492 27.2671 23.9221 27.2667 23.9999C27.2667 24.0777 27.2544 24.1506 27.2299 24.2187C27.2054 24.2867 27.1642 24.3499 27.1063 24.4083L22.1917 29.3228C22.0556 29.4589 21.8878 29.527 21.6883 29.527C21.4888 29.527 21.3163 29.4541 21.1708 29.3083Z" fill="#203D50"/>
</svg>
