<svg width="106" height="51" viewBox="0 0 106 51" fill="none" xmlns="http://www.w3.org/2000/svg">
<g clip-path="url(#clip0_238_1767)">
<path d="M87.5708 29.4279C87.2597 29.179 87.0375 28.8547 86.8252 28.5279C85.7881 26.9466 84.6598 25.4332 83.5709 23.8897C81.0821 20.3727 78.5834 16.8633 76.0945 13.3438C75.9637 13.1577 75.902 13.1527 75.7439 13.3161C74.6921 14.4097 73.6304 15.4932 72.5687 16.5742C72.4625 16.6823 72.4601 16.7476 72.5465 16.8683C74.8625 20.0635 77.176 23.2612 79.4895 26.4589C79.8821 27.0019 80.1562 27.5927 80.2303 28.2715C80.3907 29.7748 78.6896 31.0393 77.2624 30.4636C76.5143 30.1594 75.9439 29.6315 75.4674 28.9879C73.3662 26.1522 71.2675 23.3165 69.1762 20.4758C69.0404 20.2897 68.9762 20.2948 68.8231 20.4531C65.2726 24.1536 61.7171 27.8491 58.1616 31.5446C57.7345 31.9895 57.2234 32.2937 56.6259 32.4219C55.6901 32.6205 54.7913 32.1429 54.2975 31.2077C53.9247 30.5013 53.9198 29.5938 54.6234 28.8798C64.0306 19.3168 73.4279 9.74131 82.8302 0.170795C82.9816 0.0166075 83.1182 0.0241492 83.2401 0.19342C90.2053 9.81673 97.1731 19.44 104.138 29.0633C104.585 29.6818 105.067 30.2801 105.474 30.9236C105.975 31.7155 106.151 32.6004 105.862 33.518C105.533 34.5563 104.365 35.1219 103.304 34.785C102.575 34.5563 101.973 34.1239 101.524 33.5029C95.1064 24.6439 88.6943 15.7798 82.2821 6.91566C82.25 6.87041 82.2105 6.82767 82.1833 6.77739C82.1216 6.66426 82.0697 6.65672 81.9709 6.75477C81.087 7.66229 80.2006 8.56982 79.3043 9.46729C79.171 9.60053 79.2797 9.66338 79.3364 9.74382C80.6401 11.5589 81.9463 13.3714 83.2524 15.1865C85.8351 18.7738 88.4177 22.3637 90.9979 25.9511C91.1238 26.1271 91.2646 26.293 91.346 26.4966C91.2473 26.5117 91.2102 26.4262 91.1559 26.3734C90.2794 25.5539 88.793 25.6167 87.9881 26.5142C87.2721 27.3136 87.1363 28.2187 87.5239 29.2142C87.5486 29.2795 87.6005 29.3399 87.5684 29.4178L87.5708 29.4279Z" fill="#231F1F"/>
<path d="M4.59989 31.9546C4.59989 32.666 4.59989 33.3775 4.59989 34.0864C4.59989 38.9609 4.58508 43.8329 4.61224 48.7074C4.61965 49.904 3.94806 50.8266 2.57031 50.9297C2.25921 50.9523 1.95057 50.9448 1.64441 50.8744C0.72344 50.6632 0.0962941 49.8914 0.0197526 48.8733C0.00740723 48.72 0.00740723 48.5666 0.00740723 48.4133C0.00493816 41.5176 0.00987631 34.6194 0 27.7211C0 27.0927 0.246908 26.6251 0.720971 26.2731C1.27158 25.8659 1.88638 25.6296 2.58019 25.6321C3.62954 25.6371 4.6789 25.6245 5.72826 25.6773C6.7554 25.7301 7.61958 26.4265 7.89611 27.4396C9.19979 32.216 10.5035 36.9925 11.8071 41.7664C11.8121 41.7815 11.8195 41.7966 11.8294 41.8192C11.9331 41.7916 11.9084 41.6885 11.9256 41.6231C12.7602 38.4405 13.5923 35.2579 14.4244 32.0753C14.8861 30.3055 15.3503 28.5331 15.807 26.7608C15.9157 26.341 16.1749 26.0494 16.5305 25.8407C16.928 25.6094 17.3477 25.4712 17.8193 25.4762C18.9872 25.4863 20.1576 25.4712 21.318 25.6321C21.9625 25.7226 22.5452 25.9564 23.0044 26.4491C23.3032 26.7684 23.434 27.153 23.4316 27.5954C23.4241 28.9806 23.4291 30.3633 23.4291 31.7485V48.7024C23.4291 49.713 22.6933 50.6305 21.718 50.8367C20.4637 51.1006 19.3724 50.4772 18.9354 49.2504C18.8736 49.0795 18.8514 48.9085 18.8514 48.7275C18.8514 43.1893 18.8514 37.6537 18.8514 32.0778C18.7378 32.2789 18.7181 32.4775 18.6687 32.661C17.2761 38.0232 15.9132 43.3904 14.4737 48.7401C14.2466 49.5822 13.8589 50.3465 13.0244 50.6331C11.2368 51.249 9.71335 50.7261 9.1825 48.7954C7.66649 43.2597 6.18504 37.714 4.69125 32.1708C4.6715 32.0979 4.64927 32.0225 4.62705 31.9496C4.61718 31.9496 4.6073 31.9546 4.59495 31.9571L4.59989 31.9546Z" fill="#231F1F"/>
<path d="M53.5667 38.5885C54.5864 37.588 55.6135 36.6 56.6209 35.5869C57.6283 34.5738 58.6209 33.5481 59.606 32.5149C60.248 31.8411 61.0109 31.8839 61.7961 32.0976C62.5393 32.3012 62.8504 32.9045 63.0035 33.6109C63.1393 34.247 63.0035 34.7849 62.5195 35.2626C61.3591 36.414 60.2332 37.6056 59.0875 38.7745C58.969 38.8952 58.9591 38.9706 59.048 39.1139C60.6554 41.741 62.2529 44.3731 63.8603 47.0026C64.1788 47.5255 64.3393 48.0937 64.3738 48.697C64.4331 49.685 63.9294 50.3336 62.9294 50.595C61.922 50.859 60.9739 50.4819 60.4159 49.5819C58.9418 47.2037 57.4703 44.823 55.9962 42.4449C55.9296 42.3368 55.8604 42.2262 55.7814 42.098C55.6185 42.2362 55.4629 42.3669 55.3098 42.5002C54.7469 42.9879 54.1864 43.4781 53.6185 43.9608C53.4852 44.0739 53.4333 44.1845 53.4358 44.368C53.4704 45.7909 53.5272 47.2163 53.416 48.6392C53.3914 48.9635 53.3173 49.2777 53.1988 49.5794C52.8111 50.5674 51.905 51.0928 50.826 50.962C49.7816 50.8338 48.9865 50.0897 48.8631 49.059C48.8038 48.5713 48.8359 48.0735 48.831 47.5783C48.7643 41.751 48.7199 35.9212 48.7075 30.094C48.7075 29.2367 48.7125 28.3769 48.7446 27.5197C48.7816 26.5292 49.1569 25.7348 50.1025 25.315C50.2927 25.2295 50.4927 25.1868 50.705 25.1918C51.063 25.1993 51.421 25.1918 51.7791 25.1968C52.658 25.2094 53.4605 26.039 53.4704 26.934C53.5074 30.7777 53.5494 34.6241 53.5889 38.4678C53.5889 38.5282 53.5963 38.591 53.6012 38.6514C53.5914 38.6312 53.5839 38.6086 53.5741 38.5885H53.5667Z" fill="#231F1F"/>
<path d="M73.065 38.7497C73.1292 38.6617 73.181 38.5637 73.2576 38.4858C75.1217 36.5601 77.0056 34.6545 78.8451 32.7037C79.5068 32.0023 80.2451 31.8842 81.1018 32.0954C81.9142 32.294 82.2648 32.9099 82.4203 33.6766C82.5463 34.2976 82.4055 34.8205 81.9389 35.2855C80.7858 36.4344 79.6648 37.6159 78.5217 38.7774C78.3859 38.9156 78.3661 39.0011 78.4723 39.1746C80.0945 41.8217 81.7092 44.4689 83.3166 47.1261C83.6968 47.7571 83.8401 48.4585 83.7561 49.1976C83.6722 49.9317 83.1166 50.4621 82.2574 50.6481C81.2426 50.8668 80.3537 50.4822 79.8031 49.5898C78.3019 47.1613 76.7982 44.7354 75.302 42.3044C75.1958 42.131 75.139 42.1561 75.0131 42.2692C74.3415 42.8625 73.6625 43.4508 72.981 44.034C72.8724 44.127 72.8304 44.2175 72.8378 44.3608C72.8996 45.5172 72.8922 46.6761 72.8749 47.8325C72.8675 48.3906 72.8329 48.9462 72.6502 49.4842C72.2872 50.5627 71.4502 51.0805 70.1984 50.9925C69.27 50.9272 68.4478 50.1453 68.27 49.1574C68.2528 49.0618 68.2503 48.9638 68.2503 48.8683C68.2133 44.5066 68.1762 40.1424 68.1367 35.7808C68.1145 33.3599 68.0972 30.9415 68.1244 28.5206C68.1318 27.965 68.1022 27.4019 68.2478 26.8563C68.4429 26.1223 68.875 25.5994 69.5811 25.3229C69.7243 25.2675 69.87 25.2349 70.0231 25.2349C70.428 25.2374 70.8329 25.2324 71.2379 25.2424C72.0724 25.265 72.8724 26.1022 72.8798 26.9544C72.9144 30.8057 72.949 34.6596 72.9835 38.5109C72.9835 38.5738 72.9835 38.6341 72.9835 38.6969C73.0107 38.717 73.0378 38.7346 73.0675 38.7548L73.065 38.7497Z" fill="#231F1F"/>
<path d="M45.1027 41.6257C45.0187 44.1773 44.0953 46.6937 41.9447 48.647C40.4139 50.0347 38.6016 50.804 36.5547 50.9473C33.6609 51.1534 31.219 50.1504 29.2586 47.9834C28.0438 46.6384 27.3796 45.0169 27.1697 43.2119C26.9747 41.5226 26.9969 39.8357 27.4018 38.174C28.2882 34.5464 31.0931 32.6132 33.9819 32.0878C35.9177 31.7359 37.7991 31.9672 39.6411 32.5906C42.3373 33.5032 43.9471 35.4515 44.6755 38.2042C44.9422 39.2148 45.0952 40.2455 45.1002 41.6257H45.1027ZM40.4065 41.3768C40.4065 40.9067 40.3744 40.4391 40.2879 39.9765C40.0509 38.6768 39.562 37.4953 38.6189 36.5601C37.572 35.5244 36.3448 35.1297 34.93 35.6475C33.9622 36.002 33.2733 36.7134 32.7548 37.5958C31.9005 39.0439 31.6412 40.6226 31.8239 42.2843C31.9647 43.579 32.3844 44.7706 33.2091 45.7837C33.9325 46.6736 34.8263 47.2644 35.9967 47.2946C37.2658 47.3247 38.2337 46.7088 39.0016 45.7359C40.0015 44.4664 40.3842 42.9781 40.4065 41.3768Z" fill="#231F1F"/>
<path d="M87.1832 41.2486C87.1832 38.878 87.1832 36.5048 87.1832 34.1342C87.1832 32.9652 87.8819 32.1004 88.9412 31.9496C90.1979 31.7711 91.2152 32.3694 91.551 33.4932C91.672 33.9004 91.6843 34.3202 91.6843 34.7426C91.6843 37.4777 91.6843 40.2129 91.6843 42.948C91.6843 44.8008 91.6892 46.6536 91.6843 48.5088C91.6794 50.2359 90.0448 51.3445 88.472 50.6834C87.6276 50.3264 87.3042 49.5923 87.1955 48.7275C87.1758 48.5692 87.1856 48.4032 87.1856 48.2424C87.1856 45.9119 87.1856 43.579 87.1856 41.2486H87.1832Z" fill="#231F1F"/>
<path d="M87.5708 29.4282C87.6029 29.3503 87.551 29.29 87.5264 29.2246C87.1387 28.2266 87.2745 27.3241 87.9905 26.5246C88.7955 25.6272 90.2818 25.5643 91.1584 26.3839C91.2127 26.4341 91.2497 26.5221 91.3485 26.507H91.346C91.3386 26.5548 91.3608 26.5875 91.3979 26.6101C91.6917 26.9419 91.8719 27.3391 91.9435 27.769C92.1287 28.8777 91.6917 29.8254 90.746 30.3659C89.83 30.8863 88.7387 30.7053 87.9979 29.936C87.8671 29.8003 87.7486 29.6469 87.6251 29.5036C87.6202 29.4684 87.6202 29.4332 87.5733 29.4282V29.4332L87.5708 29.4282Z" fill="#203D50"/>
<path d="M38.4016 29.9785C37.3473 29.9886 36.4732 29.0961 36.4658 28C36.4584 26.8763 37.3028 25.9763 38.3695 25.9688C39.4386 25.9613 40.3225 26.8612 40.325 27.9573C40.3274 29.066 39.4707 29.9685 38.4016 29.9785Z" fill="#4BB0C7"/>
<path d="M30.1647 27.9547C30.1672 26.8537 31.0264 25.9713 32.0881 25.9688C33.056 25.9688 34.0066 26.7456 34.0165 27.9547C34.0263 29.0986 33.1498 29.981 32.0758 29.9759C30.9993 29.9684 30.1598 29.081 30.1622 27.9547H30.1647Z" fill="#4BB0C7"/>
<path d="M91.3959 26.605C91.3585 26.5799 91.3361 26.5497 91.3436 26.502C91.3885 26.5221 91.4009 26.5598 91.3959 26.605Z" fill="#231F1F"/>
<path d="M87.5683 29.4204C87.6157 29.4254 87.6157 29.4606 87.6207 29.4958C87.5883 29.4807 87.5633 29.4606 87.5683 29.4204Z" fill="#231F1F"/>
<path d="M40.4065 41.3767C40.3867 42.9781 40.004 44.4663 39.0016 45.7358C38.2337 46.7087 37.2683 47.3246 35.9967 47.2945C34.8263 47.2643 33.9301 46.6735 33.2091 45.7836C32.3844 44.768 31.9647 43.5789 31.824 42.2842C31.6437 40.6225 31.9005 39.0438 32.7548 37.5957C33.2733 36.7134 33.9622 36.0019 34.9301 35.6475C36.3448 35.1296 37.572 35.5243 38.6189 36.56C39.562 37.4952 40.0509 38.6767 40.288 39.9764C40.3719 40.439 40.404 40.9066 40.4065 41.3767Z" fill="#FEFEFE"/>
</g>
<defs>
<clipPath id="clip0_238_1767">
<rect width="106" height="51" fill="white"/>
</clipPath>
</defs>
</svg>
