<svg width="106" height="51" viewBox="0 0 106 51" fill="none" xmlns="http://www.w3.org/2000/svg">
<g clip-path="url(#clip0_238_97)">
<path d="M87.5708 29.4279C87.2597 29.179 87.0375 28.8547 86.8252 28.5279C85.7881 26.9466 84.6598 25.4332 83.5709 23.8897C81.0821 20.3727 78.5834 16.8633 76.0945 13.3438C75.9637 13.1577 75.902 13.1527 75.7439 13.3161C74.6921 14.4097 73.6304 15.4932 72.5687 16.5742C72.4625 16.6823 72.4601 16.7476 72.5465 16.8683C74.8625 20.0635 77.176 23.2612 79.4895 26.4589C79.8821 27.0019 80.1562 27.5927 80.2303 28.2715C80.3907 29.7748 78.6896 31.0393 77.2624 30.4636C76.5143 30.1594 75.9439 29.6315 75.4674 28.9879C73.3662 26.1522 71.2675 23.3165 69.1762 20.4758C69.0404 20.2897 68.9762 20.2948 68.8231 20.4531C65.2726 24.1536 61.7171 27.8491 58.1616 31.5446C57.7345 31.9895 57.2234 32.2937 56.6259 32.4219C55.6901 32.6205 54.7913 32.1429 54.2975 31.2077C53.9247 30.5013 53.9198 29.5938 54.6234 28.8798C64.0306 19.3168 73.4279 9.74131 82.8302 0.170795C82.9816 0.0166075 83.1182 0.0241492 83.2401 0.19342C90.2053 9.81673 97.1731 19.44 104.138 29.0633C104.585 29.6818 105.067 30.2801 105.474 30.9236C105.975 31.7155 106.151 32.6004 105.862 33.518C105.533 34.5563 104.365 35.1219 103.304 34.785C102.575 34.5563 101.973 34.1239 101.524 33.5029C95.1064 24.6439 88.6943 15.7798 82.2821 6.91566C82.25 6.87041 82.2105 6.82767 82.1833 6.77739C82.1216 6.66426 82.0697 6.65672 81.9709 6.75477C81.087 7.66229 80.2006 8.56982 79.3043 9.46729C79.171 9.60053 79.2797 9.66338 79.3364 9.74382C80.6401 11.5589 81.9463 13.3714 83.2524 15.1865C85.8351 18.7738 88.4177 22.3637 90.9979 25.9511C91.1238 26.1271 91.2646 26.293 91.346 26.4966C91.2473 26.5117 91.2102 26.4262 91.1559 26.3734C90.2794 25.5539 88.793 25.6167 87.9881 26.5142C87.2721 27.3136 87.1363 28.2187 87.5239 29.2142C87.5486 29.2795 87.6005 29.3399 87.5684 29.4178L87.5708 29.4279Z" fill="#FEFEFE"/>
<path d="M4.59989 31.9541C4.59989 32.6655 4.59989 33.377 4.59989 34.0859C4.59989 38.9604 4.58508 43.8324 4.61224 48.7069C4.61965 49.9035 3.94806 50.8261 2.57031 50.9292C2.25921 50.9518 1.95057 50.9443 1.64441 50.8739C0.72344 50.6627 0.0962941 49.891 0.0197526 48.8728C0.00740723 48.7195 0.00740723 48.5661 0.00740723 48.4128C0.00493816 41.5171 0.00987631 34.6189 0 27.7207C0 27.0922 0.246908 26.6246 0.720971 26.2726C1.27158 25.8654 1.88638 25.6291 2.58019 25.6316C3.62954 25.6366 4.6789 25.624 5.72826 25.6768C6.7554 25.7296 7.61958 26.426 7.89611 27.4391C9.19979 32.2156 10.5035 36.992 11.8071 41.766C11.8121 41.781 11.8195 41.7961 11.8294 41.8187C11.9331 41.7911 11.9084 41.688 11.9256 41.6227C12.7602 38.44 13.5923 35.2574 14.4244 32.0748C14.8861 30.305 15.3503 28.5327 15.807 26.7603C15.9157 26.3405 16.1749 26.0489 16.5305 25.8402C16.928 25.609 17.3477 25.4707 17.8193 25.4757C18.9872 25.4858 20.1576 25.4707 21.318 25.6316C21.9625 25.7221 22.5452 25.9559 23.0044 26.4486C23.3032 26.7679 23.434 27.1525 23.4316 27.595C23.4241 28.9801 23.4291 30.3628 23.4291 31.748V48.7019C23.4291 49.7125 22.6933 50.6301 21.718 50.8362C20.4637 51.1002 19.3724 50.4767 18.9354 49.2499C18.8736 49.079 18.8514 48.908 18.8514 48.727C18.8514 43.1888 18.8514 37.6532 18.8514 32.0773C18.7378 32.2784 18.7181 32.477 18.6687 32.6605C17.2761 38.0227 15.9132 43.39 14.4737 48.7396C14.2466 49.5817 13.8589 50.346 13.0244 50.6326C11.2368 51.2485 9.71335 50.7256 9.1825 48.7949C7.66649 43.2592 6.18504 37.7135 4.69125 32.1703C4.6715 32.0974 4.64927 32.022 4.62705 31.9491C4.61718 31.9491 4.6073 31.9541 4.59495 31.9566L4.59989 31.9541Z" fill="#FEFEFE"/>
<path d="M53.5667 38.5885C54.5864 37.588 55.6135 36.6 56.6209 35.5869C57.6283 34.5738 58.6209 33.5481 59.606 32.5149C60.248 31.8411 61.0109 31.8839 61.7961 32.0976C62.5393 32.3012 62.8504 32.9045 63.0035 33.6109C63.1393 34.247 63.0035 34.7849 62.5195 35.2626C61.3591 36.414 60.2332 37.6056 59.0875 38.7745C58.969 38.8952 58.9591 38.9706 59.048 39.1139C60.6554 41.741 62.2529 44.3731 63.8603 47.0026C64.1788 47.5255 64.3393 48.0937 64.3738 48.697C64.4331 49.685 63.9294 50.3336 62.9294 50.595C61.922 50.859 60.9739 50.4819 60.4159 49.5819C58.9418 47.2037 57.4703 44.823 55.9962 42.4449C55.9296 42.3368 55.8604 42.2262 55.7814 42.098C55.6185 42.2362 55.4629 42.3669 55.3098 42.5002C54.7469 42.9879 54.1864 43.4781 53.6185 43.9608C53.4852 44.0739 53.4333 44.1845 53.4358 44.368C53.4704 45.7909 53.5272 47.2163 53.416 48.6392C53.3914 48.9635 53.3173 49.2777 53.1988 49.5794C52.8111 50.5674 51.905 51.0928 50.826 50.962C49.7816 50.8338 48.9865 50.0897 48.8631 49.059C48.8038 48.5713 48.8359 48.0735 48.831 47.5783C48.7643 41.751 48.7199 35.9212 48.7075 30.094C48.7075 29.2367 48.7125 28.3769 48.7446 27.5197C48.7816 26.5292 49.1569 25.7348 50.1025 25.315C50.2927 25.2295 50.4927 25.1868 50.705 25.1918C51.063 25.1993 51.421 25.1918 51.7791 25.1968C52.658 25.2094 53.4605 26.039 53.4704 26.934C53.5074 30.7777 53.5494 34.6241 53.5889 38.4678C53.5889 38.5282 53.5963 38.591 53.6012 38.6514C53.5914 38.6312 53.5839 38.6086 53.5741 38.5885H53.5667Z" fill="#FEFEFE"/>
<path d="M73.0649 38.7492C73.1291 38.6613 73.1809 38.5632 73.2575 38.4853C75.1216 36.5596 77.0055 34.6541 78.845 32.7032C79.5067 32.0019 80.245 31.8837 81.1017 32.0949C81.9141 32.2935 82.2647 32.9094 82.4202 33.6761C82.5461 34.2971 82.4054 34.82 81.9387 35.285C80.7857 36.4339 79.6647 37.6155 78.5215 38.7769C78.3857 38.9152 78.366 39.0006 78.4722 39.1741C80.0943 41.8213 81.7091 44.4684 83.3165 47.1256C83.6967 47.7566 83.8399 48.458 83.756 49.1971C83.672 49.9312 83.1165 50.4616 82.2573 50.6476C81.2425 50.8664 80.3536 50.4817 79.803 49.5893C78.3018 47.1608 76.7981 44.7349 75.3019 42.3039C75.1957 42.1305 75.1389 42.1556 75.013 42.2687C74.3414 42.862 73.6624 43.4503 72.9809 44.0335C72.8723 44.1265 72.8303 44.217 72.8377 44.3603C72.8994 45.5167 72.892 46.6756 72.8748 47.8321C72.8673 48.3901 72.8328 48.9457 72.6501 49.4837C72.2871 50.5622 71.4501 51.08 70.1983 50.9921C69.2699 50.9267 68.4477 50.1449 68.2699 49.1569C68.2526 49.0614 68.2502 48.9633 68.2502 48.8678C68.2131 44.5061 68.1761 40.142 68.1366 35.7803C68.1144 33.3594 68.0971 30.941 68.1243 28.5201C68.1317 27.9645 68.102 27.4014 68.2477 26.8559C68.4428 26.1218 68.8748 25.5989 69.581 25.3224C69.7242 25.2671 69.8699 25.2344 70.023 25.2344C70.4279 25.2369 70.8328 25.2319 71.2378 25.2419C72.0723 25.2645 72.8723 26.1017 72.8797 26.9539C72.9143 30.8052 72.9488 34.6591 72.9834 38.5104C72.9834 38.5733 72.9834 38.6336 72.9834 38.6964C73.0106 38.7166 73.0377 38.7342 73.0673 38.7543L73.0649 38.7492Z" fill="#FEFEFE"/>
<path d="M45.1027 41.6257C45.0187 44.1773 44.0953 46.6937 41.9447 48.647C40.4139 50.0347 38.6016 50.804 36.5547 50.9473C33.6609 51.1534 31.219 50.1504 29.2586 47.9834C28.0438 46.6384 27.3796 45.0169 27.1697 43.2119C26.9747 41.5226 26.9969 39.8357 27.4018 38.174C28.2882 34.5464 31.0931 32.6132 33.9819 32.0878C35.9177 31.7359 37.7991 31.9672 39.6411 32.5906C42.3373 33.5032 43.9471 35.4515 44.6755 38.2042C44.9422 39.2148 45.0952 40.2455 45.1002 41.6257H45.1027ZM40.4065 41.3768C40.4065 40.9067 40.3744 40.4391 40.2879 39.9765C40.0509 38.6768 39.562 37.4953 38.6189 36.5601C37.572 35.5244 36.3448 35.1297 34.93 35.6475C33.9622 36.002 33.2733 36.7134 32.7548 37.5958C31.9005 39.0439 31.6412 40.6226 31.8239 42.2843C31.9647 43.579 32.3844 44.7706 33.2091 45.7837C33.9325 46.6736 34.8263 47.2644 35.9967 47.2946C37.2658 47.3247 38.2337 46.7088 39.0016 45.7359C40.0015 44.4664 40.3842 42.9781 40.4065 41.3768Z" fill="#FEFEFE"/>
<path d="M87.1831 41.2481C87.1831 38.8775 87.1831 36.5044 87.1831 34.1337C87.1831 32.9647 87.8819 32.1 88.9411 31.9491C90.1979 31.7706 91.2151 32.3689 91.5509 33.4927C91.6719 33.8999 91.6842 34.3198 91.6842 34.7421C91.6842 37.4772 91.6842 40.2124 91.6842 42.9475C91.6842 44.8003 91.6892 46.6531 91.6842 48.5083C91.6793 50.2354 90.0448 51.3441 88.472 50.6829C87.6275 50.3259 87.3041 49.5918 87.1955 48.7271C87.1757 48.5687 87.1856 48.4028 87.1856 48.2419C87.1856 45.9115 87.1856 43.5785 87.1856 41.2481H87.1831Z" fill="#FEFEFE"/>
<path d="M87.5709 29.4277C87.603 29.3498 87.5512 29.2895 87.5265 29.2241C87.1388 28.2261 87.2746 27.3236 87.9907 26.5241C88.7956 25.6267 90.282 25.5638 91.1585 26.3834C91.2128 26.4336 91.2498 26.5216 91.3486 26.5066H91.3461C91.3387 26.5543 91.361 26.587 91.398 26.6096C91.6918 26.9415 91.8721 27.3387 91.9437 27.7685C92.1288 28.8772 91.6918 29.8249 90.7462 30.3654C89.8301 30.8858 88.7388 30.7048 87.9981 29.9355C87.8672 29.7998 87.7487 29.6464 87.6252 29.5032C87.6203 29.468 87.6203 29.4328 87.5734 29.4277V29.4328L87.5709 29.4277Z" fill="#FEFEFE"/>
<path d="M38.4016 29.9785C37.3473 29.9886 36.4732 29.0961 36.4658 28C36.4584 26.8763 37.3028 25.9763 38.3695 25.9688C39.4386 25.9613 40.3225 26.8612 40.325 27.9573C40.3274 29.066 39.4707 29.9685 38.4016 29.9785Z" fill="#4BB0C7"/>
<path d="M30.1647 27.9547C30.1672 26.8537 31.0264 25.9713 32.0881 25.9688C33.056 25.9688 34.0066 26.7456 34.0165 27.9547C34.0263 29.0986 33.1498 29.981 32.0758 29.9759C30.9993 29.9684 30.1598 29.081 30.1622 27.9547H30.1647Z" fill="#4BB0C7"/>
<path d="M91.3959 26.605C91.3585 26.5799 91.3361 26.5497 91.3436 26.502C91.3885 26.5221 91.4009 26.5598 91.3959 26.605Z" fill="#FEFEFE"/>
<path d="M87.5685 29.4209C87.6159 29.4259 87.6159 29.4611 87.6208 29.4963C87.5884 29.4812 87.5635 29.4611 87.5685 29.4209Z" fill="#FEFEFE"/>
</g>
<defs>
<clipPath id="clip0_238_97">
<rect width="106" height="51" fill="white"/>
</clipPath>
</defs>
</svg>
