<svg width="75" height="36" viewBox="0 0 75 36" fill="none" xmlns="http://www.w3.org/2000/svg">
<g clip-path="url(#clip0_238_2195)">
<path d="M61.9604 20.7728C61.7403 20.5972 61.5831 20.3682 61.4328 20.1376C60.6991 19.0214 59.9007 17.9531 59.1303 16.8635C57.3693 14.381 55.6014 11.9037 53.8404 9.41936C53.7478 9.28804 53.7041 9.28449 53.5923 9.39984C52.8481 10.1718 52.0969 10.9366 51.3457 11.6996C51.2706 11.7759 51.2688 11.8221 51.33 11.9073C52.9687 14.1627 54.6056 16.4199 56.2425 18.6771C56.5203 19.0604 56.7142 19.4774 56.7666 19.9565C56.8802 21.0177 55.6765 21.9103 54.6667 21.5039C54.1374 21.2892 53.7338 20.9166 53.3967 20.4623C51.91 18.4606 50.4251 16.4589 48.9454 14.4537C48.8493 14.3224 48.8038 14.3259 48.6955 14.4377C46.1834 17.0499 43.6677 19.6584 41.152 22.267C40.8498 22.5811 40.4882 22.7958 40.0654 22.8863C39.4033 23.0265 38.7674 22.6893 38.418 22.0292C38.1542 21.5306 38.1507 20.89 38.6486 20.386C45.3046 13.6357 51.9537 6.87645 58.6062 0.120791C58.7133 0.0119527 58.81 0.0172763 58.8962 0.136762C63.8245 6.92968 68.7545 13.7226 73.6827 20.5155C73.9989 20.9521 74.3396 21.3744 74.6278 21.8287C74.9825 22.3877 75.1065 23.0123 74.9021 23.66C74.6698 24.3929 73.8434 24.7922 73.0922 24.5544C72.5769 24.3929 72.1506 24.0877 71.8327 23.6494C67.2922 17.3959 62.7553 11.1389 58.2184 4.88187C58.1957 4.84993 58.1677 4.81976 58.1485 4.78427C58.1048 4.70442 58.0681 4.69909 57.9982 4.7683C57.3728 5.40891 56.7457 6.04951 56.1115 6.68302C56.0172 6.77707 56.094 6.82144 56.1342 6.87822C57.0566 8.15944 57.9808 9.43888 58.9049 10.7201C60.7323 13.2524 62.5596 15.7864 64.3852 18.3187C64.4743 18.4429 64.5739 18.56 64.6316 18.7037C64.5617 18.7144 64.5355 18.654 64.497 18.6168C63.8769 18.0383 62.8252 18.0826 62.2557 18.7161C61.749 19.2804 61.653 19.9193 61.9272 20.622C61.9447 20.6681 61.9814 20.7107 61.9587 20.7657L61.9604 20.7728Z" fill="white"/>
<path d="M3.25464 22.556C3.25464 23.0582 3.25464 23.5604 3.25464 24.0608C3.25464 27.5016 3.24416 30.9407 3.26338 34.3815C3.26862 35.2262 2.79344 35.8774 1.81862 35.9502C1.5985 35.9661 1.38012 35.9608 1.16349 35.9111C0.511868 35.7621 0.0681326 35.2173 0.0139759 34.4986C0.00524097 34.3904 0.00524097 34.2821 0.00524097 34.1739C0.00349398 29.3063 0.00698796 24.437 0 19.5677C0 19.124 0.174699 18.794 0.510121 18.5455C0.8997 18.2581 1.3347 18.0913 1.8256 18.093C2.56807 18.0966 3.31055 18.0877 4.05302 18.125C4.77976 18.1622 5.39121 18.6538 5.58687 19.3689C6.50928 22.7405 7.43169 26.1122 8.3541 29.482C8.3576 29.4926 8.36284 29.5033 8.36983 29.5193C8.4432 29.4997 8.42573 29.427 8.43796 29.3808C9.02844 27.1343 9.61718 24.8877 10.2059 22.6412C10.5326 21.3919 10.861 20.1408 11.1842 18.8898C11.2611 18.5934 11.4445 18.3876 11.6961 18.2403C11.9774 18.0771 12.2743 17.9795 12.608 17.983C13.4343 17.9901 14.2624 17.9795 15.0835 18.093C15.5395 18.1569 15.9518 18.3219 16.2767 18.6697C16.4881 18.8951 16.5807 19.1666 16.5789 19.4789C16.5737 20.4567 16.5772 21.4327 16.5772 22.4105V34.3779C16.5772 35.0913 16.0566 35.739 15.3665 35.8845C14.479 36.0708 13.7069 35.6308 13.3977 34.7648C13.354 34.6441 13.3383 34.5234 13.3383 34.3957C13.3383 30.4864 13.3383 26.5789 13.3383 22.6429C13.2579 22.7849 13.2439 22.9251 13.209 23.0546C12.2237 26.8397 11.2593 30.6283 10.2409 34.4046C10.0801 34.999 9.80585 35.5385 9.21537 35.7408C7.95055 36.1755 6.87266 35.8064 6.49705 34.4436C5.4244 30.5361 4.37621 26.6214 3.31928 22.7086C3.3053 22.6571 3.28958 22.6039 3.27386 22.5524C3.26687 22.5524 3.25988 22.556 3.25115 22.5578L3.25464 22.556Z" fill="white"/>
<path d="M37.901 27.239C38.6225 26.5327 39.3492 25.8353 40.062 25.1202C40.7748 24.4051 41.4771 23.6811 42.1741 22.9517C42.6283 22.4762 43.1681 22.5063 43.7237 22.6572C44.2495 22.8009 44.4696 23.2268 44.578 23.7254C44.674 24.1744 44.578 24.5541 44.2355 24.8913C43.4145 25.704 42.6178 26.5452 41.8072 27.3703C41.7234 27.4555 41.7164 27.5087 41.7793 27.6099C42.9166 29.4643 44.0469 31.3222 45.1842 33.1784C45.4095 33.5475 45.5231 33.9485 45.5475 34.3744C45.5895 35.0718 45.2331 35.5296 44.5255 35.7142C43.8128 35.9005 43.1419 35.6343 42.7471 34.999C41.7042 33.3203 40.663 31.6399 39.62 29.9611C39.5728 29.8848 39.5239 29.8068 39.468 29.7163C39.3527 29.8139 39.2427 29.9061 39.1343 30.0002C38.736 30.3444 38.3395 30.6905 37.9377 31.0312C37.8433 31.111 37.8066 31.1891 37.8084 31.3187C37.8328 32.3231 37.873 33.3292 37.7944 34.3336C37.7769 34.5625 37.7245 34.7843 37.6407 34.9973C37.3664 35.6947 36.7252 36.0655 35.9618 35.9733C35.2228 35.8828 34.6603 35.3575 34.5729 34.6299C34.531 34.2857 34.5537 33.9343 34.5502 33.5847C34.5031 29.4714 34.4716 25.3562 34.4629 21.2429C34.4629 20.6377 34.4664 20.0308 34.4891 19.4257C34.5153 18.7266 34.7808 18.1658 35.4499 17.8695C35.5845 17.8091 35.726 17.779 35.8762 17.7825C36.1295 17.7878 36.3828 17.7825 36.6361 17.7861C37.2581 17.7949 37.8258 18.3805 37.8328 19.0123C37.859 21.7255 37.8887 24.4406 37.9167 27.1538C37.9167 27.1964 37.9219 27.2408 37.9254 27.2834C37.9184 27.2692 37.9132 27.2532 37.9062 27.239H37.901Z" fill="white"/>
<path d="M51.697 27.3529C51.7424 27.2908 51.7791 27.2216 51.8332 27.1666C53.1522 25.8073 54.4852 24.4622 55.7867 23.0851C56.2549 22.59 56.7772 22.5066 57.3834 22.6557C57.9582 22.7959 58.2062 23.2306 58.3163 23.7719C58.4054 24.2102 58.3058 24.5793 57.9756 24.9076C57.1598 25.7185 56.3667 26.5526 55.5578 27.3724C55.4617 27.47 55.4478 27.5303 55.5229 27.6528C56.6706 29.5214 57.8132 31.39 58.9505 33.2656C59.2195 33.7111 59.3208 34.2061 59.2614 34.7279C59.202 35.246 58.809 35.6205 58.201 35.7518C57.483 35.9062 56.8541 35.6346 56.4645 35.0047C55.4023 33.2905 54.3384 31.5781 53.2797 29.8621C53.2046 29.7396 53.1644 29.7574 53.0753 29.8372C52.6002 30.256 52.1197 30.6713 51.6376 31.083C51.5607 31.1486 51.531 31.2125 51.5362 31.3137C51.5799 32.1299 51.5747 32.948 51.5624 33.7643C51.5572 34.1582 51.5327 34.5504 51.4035 34.9302C51.1467 35.6914 50.5544 36.057 49.6687 35.9949C49.0118 35.9487 48.4301 35.3969 48.3043 34.6995C48.2921 34.632 48.2903 34.5628 48.2903 34.4954C48.2641 31.4166 48.2379 28.336 48.21 25.2572C48.1943 23.5483 48.182 21.8412 48.2012 20.1323C48.2065 19.7401 48.1855 19.3426 48.2886 18.9576C48.4266 18.4394 48.7323 18.0703 49.232 17.8751C49.3333 17.8361 49.4364 17.813 49.5447 17.813C49.8312 17.8148 50.1177 17.8112 50.4042 17.8183C50.9947 17.8343 51.5607 18.4252 51.5659 19.0268C51.5904 21.7454 51.6149 24.4657 51.6393 27.1843C51.6393 27.2287 51.6393 27.2713 51.6393 27.3156C51.6585 27.3298 51.6777 27.3422 51.6987 27.3564L51.697 27.3529Z" fill="white"/>
<path d="M31.9122 29.3827C31.8528 31.1839 31.1994 32.9602 29.6778 34.339C28.5946 35.3185 27.3123 35.8616 25.8641 35.9627C23.8166 36.1082 22.0888 35.4002 20.7017 33.8705C19.8422 32.9211 19.3723 31.7766 19.2238 30.5025C19.0858 29.31 19.1015 28.1193 19.388 26.9463C20.0152 24.3856 21.9998 23.021 24.0437 22.6501C25.4134 22.4017 26.7446 22.565 28.0478 23.005C29.9555 23.6492 31.0946 25.0245 31.6099 26.9676C31.7986 27.6809 31.9069 28.4085 31.9104 29.3827H31.9122ZM28.5894 29.207C28.5894 28.8752 28.5667 28.5451 28.5055 28.2186C28.3378 27.3012 27.9919 26.4672 27.3246 25.807C26.5839 25.0759 25.7156 24.7973 24.7146 25.1629C24.0298 25.4131 23.5423 25.9153 23.1755 26.5381C22.571 27.5603 22.3876 28.6747 22.5169 29.8477C22.6164 30.7615 22.9134 31.6027 23.4969 32.3178C24.0088 32.946 24.6412 33.363 25.4693 33.3843C26.3672 33.4056 27.052 32.9708 27.5954 32.2841C28.3029 31.388 28.5737 30.3374 28.5894 29.207Z" fill="white"/>
<path d="M61.6863 29.1168C61.6863 27.4434 61.6863 25.7682 61.6863 24.0948C61.6863 23.2697 62.1807 22.6592 62.9301 22.5528C63.8194 22.4268 64.5391 22.8491 64.7767 23.6423C64.8623 23.9298 64.871 24.2261 64.871 24.5243C64.871 26.455 64.871 28.3856 64.871 30.3163C64.871 31.6242 64.8745 32.932 64.871 34.2416C64.8675 35.4607 63.711 36.2433 62.5982 35.7766C62.0007 35.5246 61.7719 35.0064 61.695 34.396C61.681 34.2842 61.688 34.1671 61.688 34.0535C61.688 32.4085 61.688 30.7618 61.688 29.1168H61.6863Z" fill="white"/>
<path d="M61.9604 20.7727C61.9831 20.7176 61.9464 20.6751 61.9289 20.6289C61.6546 19.9244 61.7507 19.2874 62.2574 18.7231C62.8269 18.0896 63.8786 18.0452 64.4987 18.6237C64.5372 18.6592 64.5634 18.7213 64.6333 18.7107H64.6315C64.6263 18.7444 64.642 18.7674 64.6682 18.7834C64.8761 19.0176 65.0036 19.298 65.0543 19.6015C65.1853 20.384 64.8761 21.053 64.207 21.4346C63.5589 21.8019 62.7867 21.6741 62.2626 21.1311C62.17 21.0353 62.0862 20.927 61.9988 20.8259C61.9953 20.8011 61.9953 20.7762 61.9621 20.7727V20.7762L61.9604 20.7727Z" fill="#4BB0C7"/>
<path d="M27.1709 21.1615C26.425 21.1686 25.8065 20.5386 25.8013 19.7649C25.7961 18.9717 26.3935 18.3364 27.1482 18.3311C27.9047 18.3258 28.5301 18.961 28.5318 19.7347C28.5336 20.5173 27.9274 21.1544 27.1709 21.1615Z" fill="#4BB0C7"/>
<path d="M21.3431 19.7329C21.3448 18.9557 21.9528 18.3328 22.704 18.3311C23.3888 18.3311 24.0614 18.8794 24.0684 19.7329C24.0754 20.5404 23.4552 21.1632 22.6952 21.1597C21.9335 21.1543 21.3396 20.5279 21.3413 19.7329H21.3431Z" fill="#4BB0C7"/>
<path d="M64.667 18.7798C64.6405 18.762 64.6246 18.7407 64.6299 18.707C64.6617 18.7212 64.6705 18.7478 64.667 18.7798Z" fill="white"/>
<path d="M61.9587 20.7676C61.9922 20.7711 61.9922 20.796 61.9957 20.8208C61.9728 20.8102 61.9552 20.796 61.9587 20.7676Z" fill="white"/>
</g>
<defs>
<clipPath id="clip0_238_2195">
<rect width="75" height="36" fill="white"/>
</clipPath>
</defs>
</svg>
