<svg width="16" height="16" viewBox="0 0 16 16" fill="none" xmlns="http://www.w3.org/2000/svg">
<path fill-rule="evenodd" clip-rule="evenodd" d="M3.30165 2.66772C3.30165 2.07099 3.5387 1.49869 3.96066 1.07673C4.38262 0.654777 4.95491 0.417725 5.55165 0.417725H10.1417C10.3781 0.417767 10.6051 0.510877 10.7735 0.676925L14.7334 4.57662C14.8184 4.66034 14.8858 4.7601 14.9319 4.87011C14.9779 4.98011 15.0016 5.09817 15.0017 5.21742V11.6677C15.0017 12.2645 14.7646 12.8368 14.3426 13.2587C13.9207 13.6807 13.3484 13.9177 12.7517 13.9177H6.90165C6.66296 13.9177 6.43404 13.8229 6.26525 13.6541C6.09647 13.4853 6.00165 13.2564 6.00165 13.0177C6.00165 12.779 6.09647 12.5501 6.26525 12.3813C6.43404 12.2125 6.66296 12.1177 6.90165 12.1177H12.7517C12.871 12.1177 12.9855 12.0703 13.0698 11.9859C13.1542 11.9015 13.2017 11.7871 13.2017 11.6677V6.11742H11.0417C10.5643 6.11742 10.1064 5.92778 9.76886 5.59022C9.43129 5.25265 9.24165 4.79481 9.24165 4.31742V2.21772H5.55165C5.4323 2.21772 5.31784 2.26514 5.23345 2.34953C5.14906 2.43392 5.10165 2.54838 5.10165 2.66772V4.01772C5.10165 4.25642 5.00683 4.48534 4.83805 4.65412C4.66926 4.8229 4.44035 4.91772 4.20165 4.91772C3.96296 4.91772 3.73404 4.8229 3.56526 4.65412C3.39647 4.48534 3.30165 4.25642 3.30165 4.01772V2.66772ZM11.0417 3.46692L11.9057 4.31742H11.0417V3.46692Z" fill="white"/>
<path fill-rule="evenodd" clip-rule="evenodd" d="M6.04575 6.87787C5.81666 6.75353 5.56521 6.67579 5.30592 6.64916C5.04662 6.62253 4.78462 6.64752 4.53504 6.72269C4.28546 6.79786 4.05324 6.92173 3.85178 7.08713C3.65033 7.25254 3.48364 7.45621 3.36133 7.68639C3.23902 7.91657 3.16351 8.1687 3.13917 8.42822C3.11483 8.68774 3.14213 8.94951 3.21951 9.19842C3.29689 9.44733 3.4228 9.67844 3.58998 9.87843C3.75716 10.0784 3.9623 10.2433 4.19355 10.3636C4.65527 10.6037 5.19316 10.6518 5.69013 10.4973C6.18711 10.3428 6.60295 9.99825 6.84716 9.53867C7.09137 9.07908 7.14418 8.54165 6.99409 8.04332C6.84399 7.545 6.50316 7.12613 6.04575 6.87787ZM1.78695 6.84997C2.11913 6.22505 2.62035 5.70614 3.23337 5.35249C3.84639 4.99883 4.5465 4.82469 5.25377 4.84994C5.96103 4.87519 6.64695 5.09881 7.23319 5.49528C7.81942 5.89175 8.28236 6.44508 8.56913 7.09209C8.85591 7.7391 8.95496 8.45372 8.85498 9.15434C8.75501 9.85496 8.46003 10.5133 8.00373 11.0543C7.54743 11.5953 6.9482 11.9971 6.27447 12.2137C5.60074 12.4304 4.87965 12.4532 4.19355 12.2797L2.68515 15.1192C2.57068 15.3253 2.37988 15.4783 2.1538 15.5452C1.92772 15.6121 1.6844 15.5876 1.47618 15.477C1.26795 15.3664 1.11143 15.1785 1.04029 14.9537C0.969153 14.729 0.989066 14.4852 1.09575 14.275L2.60415 11.4355C1.97481 10.8726 1.55232 10.115 1.40418 9.28375C1.25604 8.45251 1.39081 7.5956 1.78695 6.84997Z" fill="white"/>
</svg>
