<svg width="16" height="16" viewBox="0 0 16 16" fill="none" xmlns="http://www.w3.org/2000/svg">
<path fill-rule="evenodd" clip-rule="evenodd" d="M11.4133 15.5996C10.3333 15.5599 7.27252 15.1369 4.06702 11.9321C0.862268 8.72661 0.440017 5.66661 0.399517 4.58586C0.339517 2.93886 1.60102 1.33911 3.05827 0.714356C3.23375 0.638582 3.42592 0.609732 3.61592 0.630638C3.80591 0.651544 3.98721 0.721488 4.14202 0.833606C5.34202 1.70811 6.17002 3.03111 6.88102 4.07136C7.03746 4.2999 7.10434 4.57802 7.06894 4.8527C7.03353 5.12739 6.8983 5.37945 6.68902 5.56086L5.22577 6.64761C5.15507 6.69866 5.10531 6.77363 5.08572 6.8586C5.06614 6.94357 5.07806 7.03276 5.11927 7.10961C5.45077 7.71186 6.04027 8.60886 6.71527 9.28386C7.39102 9.95886 8.33002 10.5874 8.97427 10.9564C9.05505 11.0017 9.15012 11.0144 9.23996 10.9918C9.32979 10.9692 9.40756 10.913 9.45727 10.8349L10.4098 9.38511C10.5849 9.15249 10.8432 8.99666 11.1307 8.95024C11.4181 8.90383 11.7123 8.97043 11.9518 9.13611C13.007 9.86661 14.2385 10.6804 15.14 11.8346C15.2612 11.9905 15.3383 12.1762 15.3633 12.3721C15.3882 12.568 15.3601 12.767 15.2818 12.9484C14.654 14.4131 13.0655 15.6604 11.4133 15.5996Z" fill="white"/>
</svg>
