<svg width="18" height="18" viewBox="0 0 18 18" fill="none" xmlns="http://www.w3.org/2000/svg">
<path fill-rule="evenodd" clip-rule="evenodd" d="M12.414 16.5998C11.334 16.5601 8.27325 16.1371 5.06775 12.9324C1.863 9.72685 1.44075 6.66685 1.40025 5.5861C1.34025 3.9391 2.60175 2.33935 4.059 1.7146C4.23448 1.63883 4.42665 1.60998 4.61665 1.63088C4.80664 1.65179 4.98794 1.72173 5.14275 1.83385C6.34275 2.70835 7.17075 4.03135 7.88175 5.0716C8.03819 5.30015 8.10508 5.57826 8.06967 5.85295C8.03426 6.12764 7.89903 6.3797 7.68975 6.5611L6.2265 7.64785C6.15581 7.6989 6.10604 7.77387 6.08646 7.85884C6.06687 7.94381 6.07879 8.033 6.12 8.10985C6.4515 8.7121 7.041 9.6091 7.716 10.2841C8.39175 10.9591 9.33075 11.5876 9.975 11.9566C10.0558 12.0019 10.1509 12.0146 10.2407 11.992C10.3305 11.9694 10.4083 11.9133 10.458 11.8351L11.4105 10.3854C11.5856 10.1527 11.8439 9.9969 12.1314 9.95049C12.4188 9.90407 12.7131 9.97068 12.9525 10.1364C14.0078 10.8669 15.2393 11.6806 16.1407 12.8349C16.262 12.9908 16.3391 13.1764 16.364 13.3723C16.389 13.5683 16.3608 13.7673 16.2825 13.9486C15.6547 15.4134 14.0662 16.6606 12.414 16.5998Z" fill="#203D50"/>
</svg>
