<svg width="24" height="24" viewBox="0 0 24 24" fill="none" xmlns="http://www.w3.org/2000/svg">
<path d="M20.162 6.84024C17.282 2.40024 11.402 1.08024 6.84202 3.84024C2.40202 6.60024 0.962017 12.6002 3.84202 17.0402L4.08202 17.4002L3.12202 21.0002L6.72202 20.0402L7.08202 20.2802C8.64202 21.1202 10.322 21.6002 12.002 21.6002C13.802 21.6002 15.602 21.1202 17.162 20.1602C21.602 17.2802 22.922 11.4002 20.162 6.84024ZM17.642 16.0802C17.162 16.8002 16.562 17.2802 15.722 17.4002C15.242 17.4002 14.642 17.6402 12.242 16.6802C10.202 15.7202 8.52202 14.1602 7.32202 12.3602C6.60202 11.5202 6.24202 10.4402 6.12202 9.36024C6.12202 8.40024 6.48202 7.56024 7.08202 6.96024C7.32202 6.72024 7.56202 6.60024 7.80202 6.60024H8.40202C8.64202 6.60024 8.88202 6.60024 9.00202 7.08024C9.24202 7.68024 9.84202 9.12024 9.84202 9.24024C9.96202 9.36024 9.96202 9.60024 9.84202 9.72024C9.96202 9.96025 9.84202 10.2002 9.72202 10.3202C9.60202 10.4402 9.48202 10.6802 9.36202 10.8002C9.12202 10.9202 9.00202 11.1602 9.12202 11.4002C9.60202 12.1202 10.202 12.8402 10.802 13.4402C11.522 14.0402 12.242 14.5202 13.082 14.8802C13.322 15.0002 13.562 15.0002 13.682 14.7602C13.802 14.5202 14.402 13.9202 14.642 13.6802C14.882 13.4402 15.002 13.4402 15.242 13.5602L17.162 14.5202C17.402 14.6402 17.642 14.7602 17.762 14.8802C17.882 15.2402 17.882 15.7202 17.642 16.0802Z" fill="#39B36E"/>
</svg>
